<svg width="16" height="16" viewBox="0 0 16 16" fill="none" xmlns="http://www.w3.org/2000/svg">
  <path opacity="0.3" d="M0.666748 7.99996C0.666748 3.94987 3.94999 0.666626 8.00008 0.666626C12.0502 0.666626 15.3334 3.94987 15.3334 7.99996C15.3334 12.05 12.0502 15.3333 8.00008 15.3333C3.94999 15.3333 0.666748 12.05 0.666748 7.99996Z" fill="currentColor"/>
  <path d="M5.19526 5.19526C5.45561 4.93491 5.87772 4.93491 6.13807 5.19526L8 7.05719L9.86193 5.19526C10.1223 4.93491 10.5444 4.93491 10.8047 5.19526C11.0651 5.45561 11.0651 5.87772 10.8047 6.13807L8.94281 8L10.8047 9.86193C11.0651 10.1223 11.0651 10.5444 10.8047 10.8047C10.5444 11.0651 10.1223 11.0651 9.86193 10.8047L8 8.94281L6.13807 10.8047C5.87772 11.0651 5.45561 11.0651 5.19526 10.8047C4.93491 10.5444 4.93491 10.1223 5.19526 9.86193L7.05719 8L5.19526 6.13807C4.93491 5.87772 4.93491 5.45561 5.19526 5.19526Z" fill="currentColor"/>
</svg>
