<svg width="16" height="16" viewBox="0 0 16 16" fill="none" xmlns="http://www.w3.org/2000/svg" aria-hidden="true">
<g id="agent-atom">
<g id="2" opacity="0.5">
<path d="M12.5147 11.7582C12.0784 11.9288 11.7537 12.3225 11.6817 12.7992L8.7758 10.4747C9.18126 10.2609 9.48767 9.88549 9.60913 9.43363L12.5147 11.7582Z" fill="currentColor"/>
<path d="M6.39071 9.43363C6.5121 9.88533 6.81848 10.2609 7.22371 10.4747L4.31812 12.7989C4.24597 12.3222 3.9215 11.9287 3.48511 11.7582L6.39071 9.43363Z" fill="currentColor"/>
<path d="M8.66675 7.47205C8.46259 7.38285 8.23711 7.33337 8.00008 7.33337C7.76305 7.33337 7.53757 7.38285 7.33341 7.47205V4.33337H8.66675V7.47205Z" fill="currentColor"/>
</g>
<g id="1">
<path d="M8.66667 3C8.66667 2.63181 8.36819 2.33333 8 2.33333C7.63181 2.33333 7.33333 2.63181 7.33333 3C7.33333 3.36819 7.63181 3.66667 8 3.66667C8.36819 3.66667 8.66667 3.36819 8.66667 3ZM10 3C10 4.10457 9.10457 5 8 5C6.89543 5 6 4.10457 6 3C6 1.89543 6.89543 1 8 1C9.10457 1 10 1.89543 10 3Z" fill="currentColor"/>
<path d="M9 9C9 8.44772 8.55228 8 8 8C7.44772 8 7 8.44772 7 9C7 9.55229 7.44772 10 8 10C8.55228 10 9 9.55229 9 9ZM10.3333 9C10.3333 10.2887 9.28866 11.3333 8 11.3333C6.71134 11.3333 5.66667 10.2887 5.66667 9C5.66667 7.71134 6.71134 6.66667 8 6.66667C9.28866 6.66667 10.3333 7.71134 10.3333 9Z" fill="currentColor"/>
<path d="M3.66667 13C3.66667 12.6318 3.36819 12.3333 3 12.3333C2.63181 12.3333 2.33333 12.6318 2.33333 13C2.33333 13.3682 2.63181 13.6667 3 13.6667C3.36819 13.6667 3.66667 13.3682 3.66667 13ZM5 13C5 14.1046 4.10457 15 3 15C1.89543 15 1 14.1046 1 13C1 11.8954 1.89543 11 3 11C4.10457 11 5 11.8954 5 13Z" fill="currentColor"/>
<path d="M13.6667 13C13.6667 12.6318 13.3682 12.3333 13 12.3333C12.6318 12.3333 12.3333 12.6318 12.3333 13C12.3333 13.3682 12.6318 13.6667 13 13.6667C13.3682 13.6667 13.6667 13.3682 13.6667 13ZM15 13C15 14.1046 14.1046 15 13 15C11.8954 15 11 14.1046 11 13C11 11.8954 11.8954 11 13 11C14.1046 11 15 11.8954 15 13Z" fill="currentColor"/>
</g>
</g>
</svg>
