<svg width="16" height="16" viewBox="0 0 16 16" fill="none" xmlns="http://www.w3.org/2000/svg" aria-hidden="true">
<g id="event-indicators">
<path id="2" opacity="0.5" fill-rule="evenodd" clip-rule="evenodd" d="M8 2.33333C4.87039 2.33333 2.33333 4.87039 2.33333 8C2.33333 11.1296 4.87039 13.6667 8 13.6667C11.1296 13.6667 13.6667 11.1296 13.6667 8C13.6667 4.87039 11.1296 2.33333 8 2.33333ZM1 8C1 4.13401 4.13401 1 8 1C11.866 1 15 4.13401 15 8C15 11.866 11.866 15 8 15C4.13401 15 1 11.866 1 8Z" fill="currentColor"/>
<path id="1" d="M5.24418 5.66582C5.15732 5.40523 5.40523 5.15732 5.66582 5.24418L11.9301 7.33228C12.2268 7.43117 12.2362 7.84736 11.9444 7.95962L9.20476 9.01331C9.11673 9.04717 9.04717 9.11673 9.01331 9.20476L7.95962 11.9444C7.84735 12.2362 7.43117 12.2268 7.33228 11.9301L5.24418 5.66582Z" fill="currentColor"/>
</g>
</svg>
