<svg width="16" height="16" viewBox="0 0 16 16" fill="none" xmlns="http://www.w3.org/2000/svg" aria-hidden="true">
<g id="timed-single-entry">
<g id="2" opacity="0.5">
<path d="M4.83325 4.16666V3.66666H6.16659V4.16666C6.16659 4.53485 5.86811 4.83332 5.49992 4.83332C5.13173 4.83332 4.83325 4.53485 4.83325 4.16666Z" fill="currentColor"/>
<path d="M9.49992 4.16666V3.66666H10.8333V4.16666C10.8333 4.53485 10.5348 4.83332 10.1666 4.83332C9.79839 4.83332 9.49992 4.53485 9.49992 4.16666Z" fill="currentColor"/>
</g>
<g id="1">
<path d="M8.81303 6.47978C9.00829 6.28452 9.32488 6.28452 9.52014 6.47978L11.5201 8.47978C11.7154 8.67504 11.7154 8.99163 11.5201 9.18689L9.52014 11.1869C9.32488 11.3822 9.00829 11.3822 8.81303 11.1869C8.61777 10.9916 8.61777 10.675 8.81303 10.4798L9.95948 9.33333H4.83325C4.55711 9.33333 4.33325 9.10948 4.33325 8.83333C4.33325 8.55719 4.55711 8.33333 4.83325 8.33333H9.95948L8.81303 7.18689C8.61777 6.99162 8.61777 6.67504 8.81303 6.47978Z" fill="currentColor"/>
<path fill-rule="evenodd" clip-rule="evenodd" d="M10.8333 2.16667C10.8333 1.79848 10.5348 1.5 10.1666 1.5C9.7984 1.5 9.49992 1.79848 9.49992 2.16667V2.33335L6.16659 2.33335V2.16667C6.16659 1.79848 5.86811 1.5 5.49992 1.5C5.13173 1.5 4.83325 1.79848 4.83325 2.16667V2.33335L3.33325 2.33335C2.22868 2.33335 1.33325 3.22878 1.33325 4.33335V12.6667C1.33325 13.7713 2.22868 14.6667 3.33325 14.6667H12.6666C13.7712 14.6667 14.6666 13.7713 14.6666 12.6667V4.33335C14.6666 3.22878 13.7712 2.33335 12.6666 2.33335L10.8333 2.33335V2.16667ZM12.6666 3.66669C13.0348 3.66669 13.3333 3.96516 13.3333 4.33335V12.6667C13.3333 13.0349 13.0348 13.3334 12.6666 13.3334H3.33325C2.96506 13.3334 2.66658 13.0349 2.66658 12.6667L2.66659 4.33335C2.66659 3.96516 2.96506 3.66669 3.33325 3.66669L12.6666 3.66669Z" fill="currentColor"/>
</g>
</g>
</svg>
