<svg preserveAspectRatio="none" width="100%" height="100%" overflow="visible" style="display: block;" viewBox="0 0 10.8133 10.541" fill="none" xmlns="http://www.w3.org/2000/svg">
<path id="Vector" d="M10.8133 5.27056C10.8133 5.35682 10.8111 5.44298 10.8068 5.52915C10.8025 5.61532 10.796 5.7013 10.7872 5.7871C10.7785 5.87299 10.7677 5.95852 10.7548 6.04386C10.7418 6.1292 10.7267 6.21418 10.7094 6.29878C10.6921 6.3833 10.6728 6.46745 10.6512 6.55114C10.6298 6.63483 10.6061 6.71788 10.5804 6.80048C10.5548 6.88298 10.527 6.96483 10.4972 7.04605C10.4674 7.12727 10.4356 7.20775 10.4017 7.28741C10.3679 7.36716 10.332 7.44599 10.2942 7.52391C10.2563 7.60192 10.2165 7.67892 10.1748 7.755C10.1331 7.83108 10.0896 7.90607 10.0441 7.98013C9.99854 8.05411 9.95124 8.12689 9.90211 8.19867C9.85288 8.27035 9.80201 8.34084 9.7493 8.41014C9.69659 8.47944 9.64214 8.54737 9.58604 8.6141C9.52985 8.68074 9.4721 8.74601 9.4127 8.80999C9.3533 8.87388 9.29225 8.93631 9.22973 8.99727C9.16713 9.05832 9.10305 9.11772 9.03751 9.17565C8.97197 9.23358 8.90496 9.28996 8.83658 9.34468C8.76819 9.39941 8.69843 9.45239 8.62739 9.50382C8.55626 9.55515 8.48393 9.60483 8.41042 9.65278C8.33681 9.70072 8.2621 9.74683 8.1862 9.79119C8.1103 9.83547 8.0333 9.878 7.95529 9.9187C7.87728 9.95931 7.79827 9.99808 7.71824 10.0349C7.63831 10.0719 7.55737 10.1068 7.47569 10.1398C7.39393 10.1728 7.31133 10.2039 7.2281 10.2329C7.14478 10.262 7.06081 10.289 6.97611 10.3141C6.89141 10.3391 6.80616 10.3621 6.72036 10.3831C6.63447 10.404 6.54821 10.4229 6.4614 10.4397C6.37459 10.4566 6.28751 10.4713 6.19997 10.4839C6.11243 10.4967 6.02461 10.5072 5.93661 10.5156C5.84852 10.5241 5.76033 10.5304 5.67188 10.5347C5.58351 10.5389 5.49514 10.541 5.40659 10.541C5.31813 10.541 5.22968 10.5389 5.14131 10.5347C5.05294 10.5304 4.96476 10.5241 4.87667 10.5156C4.78867 10.5072 4.70085 10.4967 4.61331 10.4839C4.52577 10.4713 4.43859 10.4566 4.35188 10.4397C4.26507 10.4229 4.17872 10.404 4.09292 10.3831C4.00712 10.3621 3.92187 10.3391 3.83717 10.3141C3.75247 10.289 3.6685 10.262 3.58518 10.2329C3.50185 10.2039 3.41935 10.1728 3.33758 10.1398C3.25582 10.1068 3.17497 10.0719 3.09494 10.0349C3.01501 9.99808 2.93599 9.95931 2.85798 9.9187C2.77988 9.878 2.70298 9.83547 2.62708 9.79119C2.55118 9.74683 2.47647 9.70072 2.40286 9.65278C2.32925 9.60483 2.25693 9.55515 2.18588 9.50382C2.11484 9.45239 2.04508 9.39941 1.9767 9.34468C1.90832 9.28996 1.84131 9.23358 1.77577 9.17565C1.71013 9.11772 1.64615 9.05832 1.58354 8.99727C1.52093 8.93631 1.45998 8.87388 1.40058 8.80999C1.34118 8.74601 1.28333 8.68074 1.22723 8.6141C1.17113 8.54737 1.11668 8.47944 1.06398 8.41014C1.01127 8.34084 0.9603 8.27035 0.911167 8.19867C0.862033 8.12689 0.814642 8.05411 0.769175 7.98013C0.723708 7.90607 0.680075 7.83108 0.638367 7.755C0.596658 7.67892 0.556875 7.60192 0.519108 7.52391C0.48125 7.44599 0.445408 7.36716 0.411492 7.28741C0.377667 7.20775 0.345858 7.12727 0.316067 7.04605C0.286183 6.96483 0.2585 6.88298 0.232742 6.80048C0.207075 6.71788 0.183517 6.63483 0.161975 6.55114C0.140525 6.46745 0.121092 6.3833 0.103858 6.29878C0.086625 6.21418 0.0715 6.1292 0.0584833 6.04386C0.0454667 5.95852 0.03465 5.87299 0.0260333 5.7871C0.017325 5.7013 0.0108167 5.61532 0.00650833 5.52915C0.00210833 5.44298 0 5.35682 0 5.27056C0 5.1843 0.00210833 5.09804 0.00650833 5.01188C0.0108167 4.9258 0.017325 4.83973 0.0260333 4.75393C0.03465 4.66813 0.0454667 4.58251 0.0584833 4.49717C0.0715 4.41183 0.086625 4.32694 0.103858 4.24233C0.121092 4.15773 0.140525 4.07358 0.161975 3.98988C0.183517 3.90619 0.207075 3.82314 0.232742 3.74055C0.2585 3.65805 0.286183 3.57619 0.316067 3.49498C0.345858 3.41376 0.377667 3.33328 0.411492 3.25362C0.445408 3.17387 0.48125 3.09503 0.519108 3.01712C0.556875 2.93911 0.596658 2.86211 0.638367 2.78603C0.680075 2.70994 0.723708 2.63496 0.769175 2.56098C0.814642 2.48701 0.862033 2.41413 0.911167 2.34236C0.9603 2.27068 1.01127 2.20018 1.06398 2.13088C1.11668 2.06158 1.17113 1.99366 1.22723 1.92693C1.28333 1.86028 1.34118 1.79502 1.40058 1.73113C1.45998 1.66714 1.52093 1.60472 1.58354 1.54376C1.64615 1.48271 1.71013 1.42331 1.77577 1.36538C1.84131 1.30744 1.90832 1.25107 1.9767 1.19634C2.04508 1.14171 2.11484 1.08863 2.18588 1.03721C2.25693 0.985875 2.32925 0.936192 2.40286 0.88825C2.47647 0.8404 2.55118 0.7942 2.62708 0.749925C2.70298 0.705558 2.77988 0.663025 2.85798 0.622417C2.93599 0.581717 3.01501 0.542942 3.09494 0.506092C3.17497 0.46915 3.25582 0.434225 3.33758 0.401225C3.41935 0.368225 3.50185 0.33715 3.58518 0.308092C3.6685 0.279033 3.75247 0.251992 3.83717 0.226967C3.92187 0.201942 4.00712 0.178933 4.09292 0.158033C4.17872 0.137042 4.26507 0.118158 4.35188 0.101292C4.43859 0.0845167 4.52577 0.0697583 4.61331 0.0571083C4.70085 0.0444583 4.78867 0.0339167 4.87667 0.0253917C4.96476 0.0169583 5.05294 0.0106333 5.14131 0.00641667C5.22968 0.00220001 5.31813 0 5.40659 0C5.49514 0 5.58351 0.00220001 5.67188 0.00641667C5.76033 0.0106333 5.84852 0.0169583 5.93661 0.0253917C6.02461 0.0339167 6.11243 0.0444583 6.19997 0.0571083C6.28751 0.0697583 6.37459 0.0845167 6.4614 0.101292C6.54821 0.118158 6.63447 0.137042 6.72036 0.158033C6.80616 0.178933 6.89141 0.201942 6.97611 0.226967C7.06081 0.251992 7.14478 0.279033 7.2281 0.308092C7.31133 0.33715 7.39393 0.368225 7.47569 0.401225C7.55737 0.434225 7.63831 0.46915 7.71824 0.506092C7.79827 0.542942 7.87728 0.581717 7.95529 0.622417C8.0333 0.663025 8.1103 0.705558 8.1862 0.749925C8.2621 0.7942 8.33681 0.8404 8.41042 0.88825C8.48393 0.936192 8.55626 0.985875 8.62739 1.03721C8.69843 1.08863 8.76819 1.14171 8.83658 1.19634C8.90496 1.25107 8.97197 1.30744 9.03751 1.36538C9.10305 1.42331 9.16713 1.48271 9.22973 1.54376C9.29225 1.60472 9.3533 1.66714 9.4127 1.73113C9.4721 1.79502 9.52985 1.86028 9.58604 1.92693C9.64214 1.99366 9.69659 2.06158 9.7493 2.13088C9.80201 2.20018 9.85288 2.27068 9.90211 2.34236C9.95124 2.41413 9.99854 2.48701 10.0441 2.56098C10.0896 2.63496 10.1331 2.70994 10.1748 2.78603C10.2165 2.86211 10.2563 2.93911 10.2942 3.01712C10.332 3.09503 10.3679 3.17387 10.4017 3.25362C10.4356 3.33328 10.4674 3.41376 10.4972 3.49498C10.527 3.57619 10.5548 3.65805 10.5804 3.74055C10.6061 3.82314 10.6298 3.90619 10.6512 3.98988C10.6728 4.07358 10.6921 4.15773 10.7094 4.24233C10.7267 4.32694 10.7418 4.41183 10.7548 4.49717C10.7677 4.58251 10.7785 4.66813 10.7872 4.75393C10.796 4.83973 10.8025 4.9258 10.8068 5.01188C10.8111 5.09804 10.8133 5.1843 10.8133 5.27056Z" fill="var(--fill-0, #34A853)"/>
</svg>
