<svg preserveAspectRatio="none" width="100%" height="100%" overflow="visible" style="display: block;" viewBox="0 0 48 48" fill="none" xmlns="http://www.w3.org/2000/svg">
<g id="data-source-hive">
<path id="1" d="M8 0.5H40C44.1421 0.5 47.5 3.85786 47.5 8V40C47.5 44.1421 44.1421 47.5 40 47.5H8C3.85786 47.5 0.5 44.1421 0.5 40V8C0.500001 3.85786 3.85787 0.5 8 0.5Z" stroke="var(--stroke-0, #001540)" stroke-opacity="0.12"/>
<path id="Facebook Icon" d="M41.708 24.0647C41.708 14.3088 33.7798 6.4 24 6.4C14.2202 6.4 6.29202 14.3088 6.29202 24.0647C6.29202 32.3487 12.0096 39.3001 19.7225 41.2093V29.463H16.0711V24.0647H19.7225V21.7386C19.7225 15.7262 22.4502 12.9395 28.3675 12.9395C29.4895 12.9395 31.4253 13.1592 32.2172 13.3782V18.2714C31.7993 18.2275 31.0733 18.2056 30.1716 18.2056C27.2682 18.2056 26.1462 19.303 26.1462 22.1555V24.0647H31.9303L30.9366 29.463H26.1462V41.6C34.9131 40.5437 41.708 33.0962 41.708 24.0647Z" fill="var(--fill-0, #0966FF)"/>
</g>
</svg>
