<svg width="20" height="20" viewBox="0 0 60 60" fill="none" xmlns="http://www.w3.org/2000/svg">
<path opacity="0.5" d="M5 9.17391C5 6.86872 6.86872 5 9.17391 5H48.8261C51.1313 5 53 6.86872 53 9.17391V48.8261C53 51.1313 51.1313 53 48.8261 53H9.17391C6.86872 53 5 51.1313 5 48.8261V9.17391Z" fill="currentColor"/>
<g opacity="0.5" style="mix-blend-mode:multiply">
<path d="M17 17C17 18.1046 16.1046 19 15 19C13.8954 19 13 18.1046 13 17C13 15.8954 13.8954 15 15 15C16.1046 15 17 15.8954 17 17Z" fill="currentColor"/>
<path d="M19 17C19 15.8954 19.8954 15 21 15H36C37.1046 15 38 15.8954 38 17C38 18.1046 37.1046 19 36 19H21C19.8954 19 19 18.1046 19 17Z" fill="currentColor"/>
<path d="M19 27C19 25.8954 19.8954 25 21 25H27C28.1046 25 29 25.8954 29 27C29 28.1046 28.1046 29 27 29H21C19.8954 29 19 28.1046 19 27Z" fill="currentColor"/>
<path d="M15 29C16.1046 29 17 28.1046 17 27C17 25.8954 16.1046 25 15 25C13.8954 25 13 25.8954 13 27C13 28.1046 13.8954 29 15 29Z" fill="currentColor"/>
</g>
<ellipse cx="44" cy="44" rx="14" ry="14" fill="currentColor"/>
<path d="M51 37.5H44.0987C43.5799 36.6033 42.6104 36 41.5 36C40.3896 36 39.4201 36.6033 38.9013 37.5H37C36.1716 37.5 35.5 38.1716 35.5 39C35.5 39.8284 36.1716 40.5 37 40.5H38.9013C39.4201 41.3967 40.3896 42 41.5 42C42.6104 42 43.5799 41.3967 44.0987 40.5H51C51.8284 40.5 52.5 39.8284 52.5 39C52.5 38.1716 51.8284 37.5 51 37.5Z" fill="white"/>
<path d="M37 47.5C36.1716 47.5 35.5 48.1716 35.5 49C35.5 49.8284 36.1716 50.5 37 50.5H43.9013C44.4201 51.3967 45.3896 52 46.5 52C47.6104 52 48.5799 51.3967 49.0987 50.5H51C51.8284 50.5 52.5 49.8284 52.5 49C52.5 48.1716 51.8284 47.5 51 47.5H49.0987C48.5799 46.6033 47.6104 46 46.5 46C45.3896 46 44.4201 46.6033 43.9013 47.5H37Z" fill="white"/>
</svg>
